<svg xmlns="http://www.w3.org/2000/svg" xmlns:xlink="http://www.w3.org/1999/xlink" xmlns:inkscape="http://www.inkscape.org/namespaces/inkscape" version="1.1" width="792" height="612" viewBox="0 0 792 612">
<defs>
<clipPath id="clip_0">
<path transform="matrix(1,0,0,-1,0,612)" d="M0 612H792V0H0Z"/>
</clipPath>
</defs>
<g inkscape:groupmode="layer" inkscape:label="Layer 2">
</g>
<g inkscape:groupmode="layer" inkscape:label="Layer 1">
<g clip-path="url(#clip_0)">
<path transform="matrix(1,0,0,-1,214.0664,301.3564)" d="M0 0C-7.237 2.497-13.602 4.243-13.602 7.987V8.239C-13.602 10.858-11.231 12.854-6.614 12.854-1.748 12.854 4.867 10.484 11.481 6.618L18.719 19.718C11.481 24.584 2.246 27.458-6.238 27.458-19.716 27.458-30.698 19.843-30.698 6.244V5.992C-30.698-6.989-20.091-11.356-10.732-14.098-3.369-16.345 3.12-17.717 3.12-21.835V-22.084C3.12-25.077 .625-27.078-4.867-27.078-11.104-27.078-18.718-24.332-25.955-19.092L-34.066-31.57C-25.207-38.56-14.726-41.678-5.365-41.678 9.109-41.678 20.216-34.94 20.216-20.089V-19.84C20.216-7.609 9.358-3.117 0 0" fill="#00adff"/>
<path transform="matrix(1,0,0,-1,442.4043,274.8955)" d="M0 0H-22.715L-44.926-24.335V18.402H-63.894V-66.892H-44.926V-46.55L-38.313-39.561-20.84-66.892H.873L-25.459-26.333Z" fill="#00adff"/>
<path transform="matrix(1,0,0,-1,513.1191,326.9355)" d="M0 0C-10.355 0-16.971 8.236-16.971 18.466V18.715C-16.971 28.575-10.23 36.937-.748 36.937 5.992 36.937 10.238 34.065 14.479 29.573L26.088 42.049C19.846 49.041 11.984 53.284-.623 53.284-21.086 53.284-35.688 37.56-35.688 18.466V18.219C-35.688-.876-20.961-16.345-.873-16.345 12.482-16.345 19.971-11.231 26.461-4.118L15.352 7.111C10.736 2.741 6.367 0 0 0" fill="#00adff"/>
<path transform="matrix(1,0,0,-1,585.6699,301.2285)" d="M0 0 25.457 26.333H2.744L-19.465 1.998V44.735H-38.432V-40.559H-19.465V-20.217L-12.85-13.228 4.615-40.559H26.33Z" fill="#00adff"/>
<path transform="matrix(1,0,0,-1,449.4121,341.7871)" d="M0 0H18.967V66.832L0 47.865Z" fill="#00adff"/>
<path transform="matrix(1,0,0,-1,458.1191,249.875)" d="M0 0C-5.67 0-10.266-4.592-10.266-10.263-10.266-15.929-5.67-20.522 0-20.522 5.668-20.522 10.26-15.929 10.26-10.263 10.26-4.592 5.668 0 0 0" fill="#00adff"/>
<path transform="matrix(1,0,0,-1,330.001,342.0361)" d="M0 0C-1.623-3.367-3.37-4.367-6.615-4.367-9.109-4.367-12.231-3.245-14.727-1.746L-21.09-15.475C-16.223-18.344-11.105-20.089-4.244-20.089 7.112-20.089 12.603-14.974 17.719-1.369L43.427 67.141H23.709L9.107 21.588-6.115 67.141H-45.391L-67.603 42.806V85.543H-86.57V.249H-67.603V20.591L-60.988 27.58-43.519 .249H-21.805L-48.134 40.808-26.213 63.481C-25.984 63.686-25.67 63.781-25.348 63.717-25.038 63.651-24.795 63.447-24.664 63.187Z" fill="#00adff"/>
</g>
</g>
</svg>
